<svg width="97" height="97" viewBox="0 0 97 97" fill="none" xmlns="http://www.w3.org/2000/svg">
<path d="M57.3193 0.5C56.6223 0.5 55.9752 0.649343 55.3779 0.848456C56.6472 1.69471 57.3441 2.81475 57.6926 4.08413C57.7176 4.25835 57.7673 4.38281 57.7922 4.55703C57.8172 4.70637 57.8419 4.85571 57.8419 5.00505C57.9416 7.19534 57.2695 7.46913 56.7966 8.7634C56.0748 10.431 56.2739 12.2231 57.145 13.6667C57.2197 13.8409 57.3193 14.04 57.4437 14.2143C56.4979 7.91715 61.7496 6.97134 62.7203 5.00505C62.795 3.28765 61.3763 2.14272 60.2563 1.34625C59.186 0.699119 58.2153 0.5 57.3193 0.5ZM65.2342 1.91872C65.1346 2.49118 65.2093 2.34184 65.1845 2.64052C65.1595 2.83964 65.1595 3.08854 65.1347 3.28765C65.085 3.48677 65.0351 3.68589 64.9605 3.88501C64.9107 4.08413 64.836 4.28325 64.7614 4.48236C64.6618 4.68149 64.5871 4.85571 64.4876 5.05483C64.4129 5.15443 64.3631 5.25394 64.2885 5.35351C64.2387 5.42817 64.1889 5.50284 64.1391 5.57751C64.0147 5.75175 63.8902 5.92597 63.7658 6.07531C63.6164 6.22465 63.492 6.39887 63.3178 6.52333C63.3178 6.54825 63.3178 6.54825 63.3178 6.54825C63.1684 6.6727 63.0191 6.82204 62.8449 6.94648C62.3222 7.34471 61.7248 7.64339 61.1772 8.01674C61.003 8.14119 60.8288 8.24075 60.6795 8.39009C60.5052 8.51454 60.3559 8.63898 60.2066 8.78832C60.0323 8.93766 59.9079 9.087 59.7585 9.26123C59.6341 9.41057 59.4847 9.5848 59.3852 9.75903C59.2607 9.93325 59.1363 10.1075 59.0367 10.2817C58.9371 10.4808 58.8625 10.6551 58.7629 10.8542C58.6883 11.0533 58.6136 11.2275 58.5638 11.4266C58.4892 11.6506 58.4394 11.8498 58.3896 12.0489C58.3647 12.1485 58.3647 12.2729 58.3399 12.3724C58.3149 12.472 58.3149 12.5716 58.2901 12.6711C58.2901 12.8702 58.2652 13.0943 58.2652 13.2934C58.2652 13.4427 58.2652 13.592 58.2901 13.7414C58.2901 13.9405 58.315 14.1396 58.3648 14.3636C58.3897 14.5627 58.4394 14.7619 58.4892 14.961C58.5639 15.1601 58.6137 15.3592 58.6883 15.5583C58.7381 15.6828 58.8128 15.8072 58.8626 15.9068L53.1379 13.6916C52.1672 13.4178 51.2214 13.1689 50.2507 12.9449C49.728 12.8205 49.2054 12.696 48.6827 12.5716C47.1893 12.2729 45.671 12.0489 44.1527 11.8996C44.103 11.8996 44.0781 11.8746 44.0283 11.8746C42.5349 11.7253 41.0664 11.6506 39.573 11.6506C38.4779 11.6506 37.3827 11.7004 36.3125 11.7751C34.7942 11.8747 33.2759 12.0737 31.7576 12.3226C31.3843 12.3724 31.0109 12.4471 30.6376 12.5218C29.866 12.6711 29.1193 12.8453 28.3975 13.0196C28.0242 13.1192 27.6508 13.2187 27.2775 13.3182C26.9041 13.4676 26.5557 13.6418 26.2072 13.7911C25.9334 13.9156 25.6596 14.04 25.3858 14.1645C25.3361 14.1894 25.2863 14.1894 25.2614 14.2142C25.0125 14.3387 24.7885 14.4382 24.5645 14.5627C24.4898 14.5876 24.44 14.6124 24.3903 14.6374C24.1165 14.7618 23.8427 14.9111 23.6187 15.0356C23.4444 15.1103 23.2702 15.2098 23.1209 15.2845C23.0462 15.3342 22.9466 15.3841 22.8969 15.4089C22.6729 15.5334 22.4489 15.6578 22.2497 15.7823C22.0257 15.9067 21.8266 16.0312 21.6524 16.1556C21.4782 16.2801 21.3039 16.3796 21.1546 16.5041C21.1297 16.529 21.1048 16.529 21.0799 16.5538C20.9306 16.6534 20.7564 16.7778 20.607 16.9023C20.607 16.9023 20.5821 16.9272 20.5573 16.952C20.4328 17.0516 20.3084 17.1511 20.1839 17.2507C20.1342 17.2756 20.0843 17.3254 20.0346 17.3503C19.9101 17.4499 19.7857 17.5743 19.6612 17.6739C19.6363 17.7236 19.5866 17.7485 19.5617 17.7735C19.4123 17.9228 19.263 18.0472 19.1136 18.1966C19.0887 18.1966 19.0887 18.2215 19.0639 18.2463C18.9146 18.3708 18.7652 18.5201 18.6159 18.6695C18.5909 18.6944 18.5909 18.7192 18.5661 18.7192C18.4417 18.8436 18.3172 18.9681 18.1928 19.1174C18.143 19.1672 18.0683 19.217 18.0186 19.2668C17.8941 19.4161 17.7448 19.5654 17.5954 19.7148C17.5705 19.7645 17.5208 19.7895 17.4958 19.8392C17.2967 20.0384 17.1225 20.2375 16.9234 20.4366C16.8984 20.4615 16.8736 20.4863 16.8487 20.5113C16.4505 20.9344 16.0273 21.3575 15.5793 21.7309C15.1313 22.1291 14.6584 22.5024 14.1855 22.826C13.6877 23.1745 13.2148 23.4731 12.6921 23.7718C12.1943 24.0456 11.6716 24.2945 11.1241 24.5185C10.6014 24.7425 10.0538 24.9416 9.50623 25.1159C8.46085 25.3399 7.39059 25.763 6.46967 25.8377C6.27055 25.8377 6.04654 25.8874 5.84743 25.9123C5.62342 25.9621 5.4243 26.0119 5.22519 26.0617C5.02607 26.1363 4.82695 26.211 4.62783 26.2857C4.42871 26.3603 4.2296 26.4599 4.03048 26.5595C3.85625 26.6839 3.65713 26.7835 3.4829 26.9079C3.30868 27.0324 3.13444 27.1817 2.9851 27.331C2.81088 27.4555 2.63665 27.6297 2.48731 27.7791C2.33797 27.9533 2.18863 28.1026 2.06418 28.2768C1.93974 28.476 1.7904 28.6502 1.69083 28.8493C1.56639 29.0236 1.44194 29.2227 1.34238 29.4218C1.24278 29.6458 1.14326 29.8449 1.06859 30.0689C0.993924 30.268 0.919255 30.492 0.844585 30.7161C0.794844 30.9152 0.744986 31.1143 0.720139 31.3134C0.720139 31.3384 0.695211 31.3631 0.695211 31.3881C0.64547 31.6121 0.64547 31.9108 0.620541 32.0601C0.595613 32.2343 0.570801 32.3837 0.570801 32.5579C0.570801 32.6575 0.570801 32.7819 0.595729 32.8815C0.620657 33.0557 0.645469 33.205 0.695328 33.3544C0.745068 33.5037 0.794926 33.653 0.869549 33.8024C0.869549 33.8273 0.869549 33.8273 0.869549 33.8273C0.944219 33.9767 1.04378 34.126 1.14333 34.2753C1.24293 34.4247 1.34246 34.574 1.46691 34.7234C1.59135 34.8478 1.74069 34.9971 1.89003 35.1216C2.03937 35.2709 2.18871 35.3954 2.36293 35.5198C2.96029 36.0425 3.10963 36.2167 3.88121 36.615C4.00566 36.6896 4.13012 36.7394 4.27946 36.8141C4.30439 36.8141 4.3292 36.839 4.35413 36.839C4.35413 36.8887 4.35413 36.9137 4.37906 36.9635C4.40399 37.1626 4.45373 37.3617 4.5035 37.5608C4.55324 37.7848 4.62796 37.984 4.70263 38.1582C4.7773 38.3075 4.82708 38.4569 4.90175 38.6062C4.92668 38.6559 4.95149 38.7058 4.97642 38.7306C5.07601 38.9298 5.17553 39.104 5.27508 39.2782C5.39954 39.4524 5.52399 39.6267 5.64843 39.8009C5.77288 39.9502 5.92222 40.1245 6.07156 40.2738C6.2209 40.4231 6.37024 40.5476 6.54447 40.6969C6.54447 40.6969 6.5694 40.7219 6.59421 40.7219C6.74355 40.8463 6.89289 40.9708 7.04223 41.0703C7.21645 41.1948 7.39069 41.2943 7.5898 41.3939C7.76403 41.4935 7.96315 41.593 8.16227 41.6677C8.31161 41.7424 8.48583 41.7921 8.66006 41.8419C8.68499 41.8669 8.7098 41.8669 8.75966 41.8917C8.85926 41.9166 8.98366 41.9414 9.08322 41.9663C9.00855 43.3104 8.98362 44.5798 9.18282 45.0278C9.40682 45.5256 10.502 44.0073 11.5971 42.265C11.4478 43.9824 11.3482 45.9985 11.5971 46.5958C11.8709 47.2181 13.3643 45.2767 14.6586 43.1362C32.3054 39.0542 48.4091 51.2502 50.1016 68.4739C49.778 65.7858 46.4677 64.2924 44.9494 64.6658C44.2027 66.5076 42.9333 68.8722 40.8924 70.3407C41.0666 68.6979 40.992 67.0054 40.6435 65.3627C40.0959 67.6526 39.0256 69.7931 37.5571 71.6349C35.1926 71.8092 32.8281 70.6642 31.5836 68.9468C31.484 68.8722 31.4591 68.7228 31.3845 68.6233C31.3098 68.449 31.2351 68.2748 31.1854 68.1006C31.1107 67.9264 31.0609 67.7521 31.036 67.5779C31.0111 67.4037 31.0111 67.2294 31.0111 67.0303C31.0111 66.9059 31.0111 66.7814 31.0111 66.657C31.036 66.4827 31.0858 66.3085 31.1355 66.1343C31.1853 65.9601 31.2351 65.7858 31.3098 65.6116C31.4094 65.4374 31.484 65.2631 31.6084 65.0889C32.0316 63.8942 32.0316 62.9235 31.26 62.351C31.1106 62.2514 30.9613 62.1768 30.7871 62.1021C30.6875 62.0772 30.5631 62.0275 30.4635 62.0025C30.3888 61.9776 30.3391 61.9528 30.2644 61.9279C30.0902 61.8781 29.9159 61.8283 29.7417 61.8034C29.5675 61.7537 29.3933 61.7288 29.219 61.7288C29.0448 61.7038 28.8457 61.679 28.6714 61.679C28.547 61.679 28.4225 61.7039 28.2981 61.7039C28.099 61.7039 27.9248 61.7289 27.7505 61.7786C27.5763 61.8036 27.4021 61.8283 27.2278 61.8782C27.0536 61.9279 26.8794 61.9778 26.7052 62.0524C26.5309 62.1271 26.3816 62.2018 26.2074 62.2764C26.058 62.3511 25.9087 62.4507 25.7345 62.5253C19.9351 66.3086 23.3948 75.1693 27.3523 77.733C25.8589 78.0068 24.3406 78.3303 23.9175 78.6539C23.8926 78.6788 23.8678 78.7036 23.8678 78.7036C24.938 79.3508 26.0581 79.8983 27.2279 80.3712C28.8208 80.8939 30.5133 81.3668 31.26 81.566V81.5909C33.3259 82.014 35.4166 82.1634 37.5322 82.0389C48.5584 81.2673 57.5934 72.8795 59.2361 61.8284C59.2859 62.0524 59.3357 62.2515 59.3855 62.4756C59.4601 62.9236 59.5597 63.3965 59.6095 63.8694C59.6095 63.8694 59.6095 63.8694 59.6095 63.8943C59.6592 64.1183 59.6841 64.3424 59.7091 64.5415C59.7091 64.5912 59.7091 64.6161 59.7091 64.6411C59.734 64.8651 59.7588 65.0891 59.7588 65.2882C59.7837 65.562 59.8085 65.8358 59.8085 66.1096C59.8085 66.234 59.8085 66.3585 59.8085 66.5078C59.8085 66.6323 59.8335 66.7816 59.8335 66.906C59.8335 67.0554 59.8085 67.2047 59.8085 67.354C59.8085 67.4785 59.8085 67.603 59.8085 67.7025C59.8085 67.8767 59.7836 68.0261 59.7836 68.2003C59.7836 68.2999 59.7836 68.3994 59.7587 68.5239C59.7587 68.6981 59.7337 68.8723 59.7337 69.0714C59.7088 69.1461 59.7088 69.2208 59.7088 69.2955C59.6839 69.4946 59.659 69.6688 59.6341 69.8679C59.6341 69.9426 59.6341 70.0173 59.6092 70.0919C59.5842 70.3408 59.5345 70.5648 59.5096 70.8137V70.8387V70.8636C59.4599 71.0876 59.41 71.3365 59.3602 71.5605C59.3602 71.5854 59.3602 71.6103 59.3602 71.6352C59.3105 71.8592 59.2607 72.0832 59.2109 72.3072C59.2109 72.3322 59.186 72.3819 59.186 72.4068C59.1362 72.6308 59.0864 72.8548 59.0118 73.0788C59.0118 73.1038 59.0118 73.1286 59.0118 73.1535C58.9371 73.4024 58.8624 73.6264 58.8127 73.8504C58.7877 73.8753 58.7877 73.9002 58.7877 73.9002C58.7131 74.1491 58.6384 74.3979 58.5637 74.6468C58.4641 74.8957 58.3895 75.1198 58.2899 75.3687C58.1904 75.6175 58.1157 75.8664 58.0162 76.0904C57.9166 76.3394 57.817 76.5634 57.7175 76.8123H57.6925C57.5929 77.0363 57.4934 77.2852 57.3689 77.5092C57.344 77.5838 57.3192 77.6336 57.2943 77.6834C57.2693 77.7084 57.2694 77.7331 57.2445 77.7581C55.6267 81.0186 53.2373 83.8809 50.2505 86.121C50.0514 86.2455 49.8523 86.3948 49.6532 86.5441C49.6034 86.5939 49.5287 86.6188 49.4789 86.6686C49.3047 86.793 49.1305 86.9175 48.9314 87.0419L49.006 87.1913H49.031C49.3794 87.1415 49.7279 87.0917 50.0763 87.0419H50.1012C50.7484 86.9423 51.3955 86.8179 52.0426 86.6935C52.2169 86.6685 52.416 86.6188 52.5902 86.569C52.7147 86.5441 52.8142 86.5193 52.9387 86.4944C53.1129 86.4694 53.2871 86.4197 53.4614 86.3948C53.6107 86.345 53.76 86.3201 53.9094 86.2703C56.3983 85.673 58.8127 84.8516 61.1274 83.8809C57.1699 89.282 51.8684 93.6377 45.6709 96.5C48.5332 96.3009 51.3955 95.828 54.1583 95.0315C64.1888 92.0696 72.6265 85.3245 77.6791 76.2397C76.6586 81.9893 74.3688 87.465 70.9837 92.2439C73.3981 90.6509 75.6132 88.8091 77.6293 86.7183C83.2046 80.8941 86.8634 73.5019 88.1079 65.562C88.9542 69.4946 89.203 73.5517 88.8297 77.5589C106.8 52.4949 90.3231 26.51 83.4286 19.6653C83.4037 19.6156 83.3789 19.5907 83.3789 19.5409C83.3539 19.5658 83.3539 19.5658 83.3539 19.5906C83.3539 19.5657 83.3539 19.5657 83.329 19.5409C83.329 19.8396 83.3041 20.1382 83.2793 20.4369C83.2046 21.0094 83.1299 21.5569 83.0304 22.1045C82.9059 22.6521 82.7566 23.1997 82.6072 23.7472C82.433 24.2699 82.2339 24.8175 82.0099 25.3402C81.7859 25.838 81.537 26.3607 81.2632 26.8585C80.9894 27.3314 80.6907 27.8292 80.3672 28.2772C80.0436 28.7501 79.6951 29.1981 79.3467 29.6212C78.9733 30.0692 78.5751 30.4675 78.1769 30.8657C77.928 31.0897 77.704 31.2888 77.455 31.488C77.2559 31.6622 77.0817 31.8115 76.8826 31.9857C76.4346 32.3342 75.9866 32.6578 75.4888 32.9565C75.0159 33.2551 74.5181 33.5538 74.0203 33.8027C73.4976 34.0516 72.9749 34.2756 72.4522 34.4996C71.9295 34.6987 71.382 34.873 70.8344 35.0223C70.2868 35.1716 69.7143 35.2961 69.1668 35.3956C68.5943 35.4953 68.0218 35.545 67.4743 35.5948C67.076 35.6197 66.6778 35.6445 66.2796 35.6445C65.7071 35.6445 65.1346 35.5948 64.5871 35.5449C64.0146 35.4952 63.4421 35.4205 62.8946 35.296C62.3221 35.1964 61.7745 35.0471 61.2269 34.8729H61.202C61.7496 34.8232 62.2972 34.7733 62.8448 34.6738C63.4172 34.5742 63.9648 34.4498 64.5124 34.3004C65.0599 34.1511 65.6075 33.9768 66.1302 33.7777C66.6778 33.5786 67.2005 33.3297 67.6982 33.0808C68.2209 32.8319 68.6938 32.5581 69.1916 32.2595C69.6645 31.9359 70.1374 31.6123 70.5854 31.2639C71.0335 30.9154 71.4566 30.5421 71.8548 30.1438C72.278 29.7705 72.6513 29.3474 73.0247 28.9242C73.398 28.4762 73.7465 28.0282 74.07 27.5802C74.1198 27.5055 74.1696 27.406 74.2194 27.3313C74.4683 26.9331 74.7171 26.5348 74.9412 26.1366C75.215 25.6388 75.4639 25.141 75.6879 24.6183C75.9119 24.0956 76.111 23.5729 76.2852 23.0254C76.4594 22.5027 76.5839 21.9551 76.7083 21.4075C76.8079 20.8351 76.9075 20.2875 76.9572 19.7399C77.007 19.1675 77.0568 18.595 77.0568 18.0474C77.0568 17.6492 77.0319 17.2509 77.0071 16.8527C76.9573 16.2802 76.8826 15.7327 76.808 15.1851C76.7084 14.6126 76.584 14.0651 76.4346 13.5175C76.2604 12.9948 76.0862 12.4472 75.8871 11.9245C75.6879 11.4019 75.439 10.8792 75.1901 10.3814C74.9163 9.88357 74.6426 9.38578 74.3439 8.91288C74.0203 8.43998 73.6967 7.99196 73.3483 7.54394C72.975 7.12081 72.6016 6.69769 72.2034 6.27456C72.0042 6.07545 71.7802 5.85144 71.5562 5.65232C70.4362 4.78118 69.2664 3.95981 68.0966 3.21312C67.9223 3.11353 67.773 3.03889 67.5988 2.96422C66.7774 2.44154 66.0058 2.16761 65.2342 1.91872Z" fill="#E0234E"/>
</svg>
